<svg width="28" height="22" viewBox="0 0 28 22" fill="none" xmlns="http://www.w3.org/2000/svg">
<path d="M19.96 10.3102C18.7333 10.3102 17.7733 10.7369 17.08 11.5902C16.3333 12.3902 15.96 13.5102 15.96 14.9502C15.96 16.4969 16.52 17.9369 17.64 19.2702C18.76 20.5502 20.12 21.1902 21.72 21.1902C23.48 21.1902 24.84 20.6035 25.8 19.4302C26.76 18.2569 27.24 16.6035 27.24 14.4702C27.24 11.5902 26.6267 9.03021 25.4 6.79021C24.12 4.55021 22.2533 2.36354 19.8 0.230213L17.16 2.79021C18.6533 4.12355 19.8267 5.43021 20.68 6.71021C21.48 7.99021 21.9867 9.35021 22.2 10.7902C21.6667 10.4702 20.92 10.3102 19.96 10.3102ZM4.12 10.3102C2.89333 10.3102 1.93333 10.7369 1.24 11.5902C0.546665 12.3902 0.199998 13.5102 0.199998 14.9502C0.199998 16.4969 0.759998 17.9369 1.88 19.2702C3 20.5502 4.36 21.1902 5.96 21.1902C7.72 21.1902 9.08 20.6035 10.04 19.4302C11 18.2569 11.48 16.6035 11.48 14.4702C11.48 11.5902 10.8667 9.03021 9.64 6.79021C8.36 4.55021 6.49333 2.36354 4.04 0.230213L1.4 2.79021C2.94667 4.12355 4.12 5.43021 4.92 6.71021C5.72 7.93688 6.22667 9.27021 6.44 10.7102C5.90667 10.4435 5.13333 10.3102 4.12 10.3102Z" fill="#245F41"/>
</svg>
