<svg width="28" height="22" viewBox="0 0 28 22" fill="none" xmlns="http://www.w3.org/2000/svg">
<path d="M8.04 10.3102C9.26667 10.3102 10.2267 10.7369 10.92 11.5902C11.6667 12.3902 12.04 13.5102 12.04 14.9502C12.04 16.4969 11.48 17.9369 10.36 19.2702C9.24 20.5502 7.88 21.1902 6.28 21.1902C4.52 21.1902 3.16 20.6035 2.2 19.4302C1.24 18.2569 0.76 16.6035 0.76 14.4702C0.76 11.5902 1.37333 9.03021 2.6 6.79021C3.88 4.55021 5.74667 2.36354 8.2 0.230213L10.84 2.79021C9.34667 4.12355 8.17333 5.43021 7.32 6.71021C6.52 7.99021 6.01333 9.35021 5.8 10.7902C6.33333 10.4702 7.08 10.3102 8.04 10.3102ZM23.88 10.3102C25.1067 10.3102 26.0667 10.7369 26.76 11.5902C27.4533 12.3902 27.8 13.5102 27.8 14.9502C27.8 16.4969 27.24 17.9369 26.12 19.2702C25 20.5502 23.64 21.1902 22.04 21.1902C20.28 21.1902 18.92 20.6035 17.96 19.4302C17 18.2569 16.52 16.6035 16.52 14.4702C16.52 11.5902 17.1333 9.03021 18.36 6.79021C19.64 4.55021 21.5067 2.36354 23.96 0.230213L26.6 2.79021C25.0533 4.12355 23.88 5.43021 23.08 6.71021C22.28 7.93688 21.7733 9.27021 21.56 10.7102C22.0933 10.4435 22.8667 10.3102 23.88 10.3102Z" fill="#245F41"/>
</svg>
