<svg width="26" height="26" viewBox="0 0 26 26" fill="none" xmlns="http://www.w3.org/2000/svg">
<g clip-path="url(#clip0_4566_8597)">
<path d="M0.0119831 13.0251C0.0119831 10.6731 0.00435664 8.32107 0.0135083 5.96751C0.0272359 2.47057 2.50277 0.0092074 6.01398 0.00465212C10.663 -0.00142158 15.3136 -0.00294 19.9627 0.00465212C23.5029 0.0092074 25.9876 2.49183 25.9922 6.02673C25.9983 10.6549 25.9998 15.2846 25.9922 19.9127C25.9876 23.5327 23.4998 25.9971 19.8651 25.9986C15.2404 25.9986 10.6158 26.0016 5.99262 25.9986C2.56683 25.9955 0.0623174 23.5645 0.0150336 20.1587C-0.0169973 17.7809 0.00893249 15.403 0.00893249 13.0251H0.0119831ZM13.0486 2.43413C11.1176 2.43413 9.18809 2.42502 7.25708 2.43565C4.507 2.45084 2.46006 4.38835 2.42498 7.1291C2.37465 11.0482 2.36855 14.9672 2.42498 18.8863C2.46311 21.621 4.53293 23.5645 7.27386 23.5706C11.1084 23.5782 14.9445 23.5797 18.7791 23.5706C21.5063 23.563 23.5547 21.539 23.5624 18.8331C23.5746 14.9399 23.5746 11.0451 23.5624 7.15188C23.5547 4.48401 21.52 2.45691 18.837 2.43717C16.9076 2.42199 14.9765 2.43413 13.0455 2.43565L13.0486 2.43413Z" fill="#245F41"/>
<path d="M6.56189 12.9417C6.62138 9.34604 9.53925 6.5081 13.1145 6.56732C16.6715 6.62502 19.5009 9.57684 19.4444 13.1709C19.3895 16.6254 16.4259 19.4709 12.9254 19.4314C9.38977 19.3919 6.50393 16.4477 6.56189 12.9417ZM13.0138 17.2236C15.3704 17.21 17.2862 15.3043 17.277 12.9827C17.2694 10.6731 15.2941 8.72955 12.9803 8.75385C10.6115 8.77814 8.73847 10.664 8.7461 13.0176C8.75373 15.3848 10.6359 17.2388 13.0138 17.2236Z" fill="#245F41"/>
<path d="M21.258 6.07057C21.2747 6.7736 20.7043 7.38704 19.9935 7.42804C19.3056 7.46752 18.6696 6.87989 18.639 6.17382C18.6055 5.42675 19.2019 4.7799 19.9294 4.77687C20.6341 4.77383 21.2412 5.3645 21.2595 6.07057H21.258Z" fill="#245F41"/>
</g>
<defs>
<clipPath id="clip0_4566_8597">
<rect width="26" height="26" fill="white"/>
</clipPath>
</defs>
</svg>
