<svg width="13" height="26" viewBox="0 0 13 26" fill="none" xmlns="http://www.w3.org/2000/svg">
<g clip-path="url(#clip0_4566_8595)">
<path d="M7.89132 26.0001H2.57885V13.0137H0V7.80556H2.55434C2.55434 7.45724 2.54361 7.16647 2.55587 6.87721C2.59418 5.97157 2.56353 5.05533 2.70144 4.16332C3.06766 1.79776 4.69342 0.228793 7.11292 0.0652331C9.01297 -0.0634948 10.9283 0.0394875 12.8973 0.0394875V4.44955C11.7788 4.44955 10.6663 4.44501 9.55233 4.44955C8.43529 4.45561 8.08133 4.79939 8.0706 5.88525C8.06447 6.48497 8.0706 7.0862 8.0706 7.77376H13C12.836 9.54112 12.6813 11.2131 12.5158 12.9895H7.89132V26.0001Z" fill="#245F41"/>
</g>
<defs>
<clipPath id="clip0_4566_8595">
<rect width="13" height="26" fill="white"/>
</clipPath>
</defs>
</svg>
